<?xml version="1.0" ?><svg id="Layer_1" style="enable-background:new 0 0 50 50;" version="1.1" viewBox="0 0 50 50" xml:space="preserve" xmlns="http://www.w3.org/2000/svg" xmlns:xlink="http://www.w3.org/1999/xlink"><style type="text/css">
	.st0{fill:#F0C4DB;}
	.st1{fill:#FF9D9C;}
	.st2{fill:#9BEAF9;}
	.st3{fill:#E9F4BC;}
	.st4{fill:#505050;}
	.st5{fill:#FEBECC;}
	.st6{fill:#FFFFFF;}
	.st7{fill:#FDE4A1;}
	.st8{fill:#FEE7B5;}
	.st9{fill:#CDF6FC;}
	.st10{fill:#F2C6DD;}
	.st11{opacity:0.1;}
</style><g><path class="st5" d="M15.59,12c-5.61,0-10.7,2.22-14.47,5.8v29.73h29.6c3.63-3.77,5.87-8.89,5.87-14.54   C36.59,21.4,27.19,12,15.59,12z"/><g><g><circle class="st3" cx="37.94" cy="34.8" r="10.18"/><path class="st7" d="M37.94,41.99c-3.96,0-7.18-3.22-7.18-7.18c0-3.96,3.22-7.18,7.18-7.18s7.18,3.22,7.18,7.18     C45.13,38.76,41.9,41.99,37.94,41.99z"/><rect class="st6" height="4" transform="matrix(-1.836970e-16 1 -1 -1.836970e-16 42.9144 -1.4523)" width="6" x="19.18" y="18.73"/><path class="st2" d="M39.98,8.1H4.05c-1.06,0-1.92,0.85-1.92,1.92v5.52c0,0.92,0.65,1.71,1.56,1.89l16.5,3.19v-2.89h4v2.83     l16.16-3.13c0.91-0.18,1.56-0.97,1.56-1.89v-5.52C41.9,8.96,41.03,8.1,39.98,8.1z"/><path class="st1" d="M40.34,17.43l-16.16,3.13v3.17h-4v-3.11l-16.5-3.19c-0.01,0-0.02-0.01-0.03-0.01V34.3     c0,1.07,0.86,1.93,1.93,1.93h22.29c-0.07-0.47-0.11-0.94-0.11-1.43c0-5.62,4.56-10.18,10.18-10.18c0.84,0,1.65,0.11,2.43,0.3     v-7.5C40.36,17.42,40.35,17.43,40.34,17.43z"/></g><g><path class="st4" d="M41.12,24.35v-6.4c0.91-0.44,1.53-1.36,1.53-2.41v-5.52c0-1.19-0.78-2.18-1.86-2.53     c-0.12-0.08-0.26-0.14-0.42-0.14h-0.4c-0.01,0-0.01,0-0.01,0h-9.81V4.21c0-0.96-0.79-1.75-1.75-1.75H15.62     c-0.96,0-1.75,0.79-1.75,1.75v3.14H4.05c-1.47,0-2.67,1.2-2.67,2.67v5.52c0,1.05,0.62,1.97,1.52,2.41V34.3     c0,1.48,1.2,2.68,2.68,2.68h21.65c1.01,4.99,5.43,8.76,10.71,8.76c6.03,0,10.93-4.9,10.93-10.93     C48.87,29.88,45.6,25.71,41.12,24.35z M2.87,10.02c0.01-0.65,0.52-1.17,1.18-1.17h17.58c0.41,0,0.75-0.34,0.75-0.75     c0-0.41-0.34-0.75-0.75-0.75h-6.26V4.21c0-0.14,0.11-0.25,0.25-0.25H28.4c0.14,0,0.25,0.11,0.25,0.25v3.14h-3.02     c-0.41,0-0.75,0.34-0.75,0.75c0,0.41,0.34,0.75,0.75,0.75h14.35c0.64,0,1.17,0.53,1.17,1.17v5.52c0,0.56-0.4,1.05-0.95,1.16     c0,0-0.01,0-0.01,0c0,0-0.01,0-0.01,0.01l-15.25,2.95v-1.92c0-0.41-0.34-0.75-0.75-0.75h-4c-0.41,0-0.75,0.34-0.75,0.75v1.98     L3.86,16.7c-0.02,0-0.03-0.01-0.05-0.01c-0.55-0.12-0.94-0.6-0.94-1.15V10.02z M23.43,18.48v4.5h-2.5v-4.5H23.43z M5.58,35.48     c-0.65,0-1.18-0.53-1.18-1.18V18.33l15.03,2.91v2.48c0,0.41,0.34,0.75,0.75,0.75h4c0.41,0,0.75-0.34,0.75-0.75v-2.55l14.69-2.85     v5.68c-0.55-0.09-1.11-0.14-1.68-0.14c-6.03,0-10.93,4.9-10.93,10.93c0,0.23,0.02,0.45,0.03,0.68H5.58z M37.94,44.24     c-5.2,0-9.43-4.23-9.43-9.43s4.23-9.43,9.43-9.43s9.43,4.23,9.43,9.43S43.14,44.24,37.94,44.24z"/><path class="st4" d="M37.94,26.87c-4.37,0-7.93,3.56-7.93,7.93c0,4.37,3.56,7.93,7.93,7.93s7.93-3.56,7.93-7.93     C45.87,30.43,42.32,26.87,37.94,26.87z M37.94,41.24c-3.55,0-6.43-2.89-6.43-6.43c0-3.55,2.88-6.43,6.43-6.43     s6.43,2.89,6.43,6.43C44.37,38.35,41.49,41.24,37.94,41.24z"/><path class="st4" d="M37.94,31.61c0.67,0,1.22,0.55,1.22,1.22c0,0.41,0.34,0.75,0.75,0.75s0.75-0.34,0.75-0.75     c0-1.24-0.84-2.28-1.97-2.6v-0.38c0-0.41-0.34-0.75-0.75-0.75s-0.75,0.34-0.75,0.75v0.38c-1.13,0.33-1.97,1.36-1.97,2.6     c0,1.5,1.22,2.72,2.72,2.72c0.67,0,1.22,0.55,1.22,1.22S38.62,38,37.94,38s-1.22-0.55-1.22-1.22c0-0.41-0.34-0.75-0.75-0.75     s-0.75,0.34-0.75,0.75c0,1.24,0.84,2.28,1.97,2.6v0.38c0,0.41,0.34,0.75,0.75,0.75s0.75-0.34,0.75-0.75v-0.38     c1.13-0.33,1.97-1.36,1.97-2.6c0-1.5-1.22-2.72-2.72-2.72c-0.67,0-1.22-0.55-1.22-1.22S37.27,31.61,37.94,31.61z"/><circle class="st4" cx="23.63" cy="8.1" r="0.75"/></g></g></g></svg>